<svg id="Layer_1" preserveAspectRatio="none" data-name="Layer 1" xmlns="http://www.w3.org/2000/svg" viewBox="0 0 1023.22 84.35"><defs><style>.cls-1{fill:#fff;}</style></defs><title>line-messy-bottom</title><path class="cls-1" d="M1155-19.37a43.71,43.71,0,0,1-13.61,0c3.35.15-.9-1,2.48-.88.14.27.36.52,2.46.44.69-.14,5-.66,1.24-.87-.14.27-.37.51-2.48.43,2.16-.87-.11-1.21,0-2.18-6.79.81-.83-1.47-7.41-1.31-2,1.06-6.16.41-8.66,0-.12.78-.58,1.49-3.71,1.75-1.82-.32-1.82-1.43,0-1.75-3-.2-7.34-.82-9.89-.44.11.82,1.39.62,0,1.31-4.35-.74-4.44.5-6.18.88-2.29-.29-8.62-.42-4.94-1.09-6.61.15-8.89-.47-9.89-1.31,2.7,0,3.92-.18,3.71-.65-6.33-.52-14.32-.77-18.56-1.09.13-.34,3.17-.17,2.47-.65-4.34-.41-8.53.31-8.65.65-3.39-.71-12.66-.39-13.59-1.53-3.87.61-6.4.29-11.13,0-.86.47-.65.95-.81,1.26a20.17,20.17,0,0,0-2.64.2c-5.16-.21-8.83-.63-12.62-.58,1.5,0,2.92-.06,2.48-.44-3.9.25-3-.34-5-.43.32,1.09-5.06,1.18-8.31,1.65V-41.24H-.38v8.78c-5.77.39-3,1.32-7.65,2.12-1.66-.14-2.32-.46-2.47-.87C-17.29-31.28-19-30-24.11-30.12a4,4,0,0,0-.77.56l-.83-.06a5.33,5.33,0,0,0-1.52.77h-.59c1.06-.84-2.07-.94-3.7-1.31-5.44.94-4.52,2.47-7.06,3.52-.91.25-1.86.49-3,.71l-1.12.13c-.55-.42,1.67-1.32-2.48-1.09.63.39.25.93-.51,1.51l-1.09.08v-.87c-8.69-.12-6.1,1.71-11.1,2.22,1.9-.6.15-.8-3.11-.86A6.11,6.11,0,0,0-61.22-26h-1.26c3.84-.57,9.44-.54,9.55-1a4.21,4.21,0,0,0,2.48,0,32.5,32.5,0,0,0-9.87-.26c.27-.41-1.39-.48-1.25-.87-5.43.05-3.77,1.37-6.18,2a9.11,9.11,0,0,1,2.37.15c-.73.47-.13,1.09-.07,1.66-1.33.38-2.85.75-1.52,1.12a13.82,13.82,0,0,1-1.65.26c-1.8-.48.15-1.62-3.7-1.74-.51,1.71-8.47,1.1-11.13,1.53,1.74,0,1.41.47,2.47.65-4.53.07-3.55,1.11-8.65,1.09-.19-.26.22-.62-1.23-.66-1.79.32-1.83,1.43-5,.88.82,1.67.43,2.38-4.95,3.27-15.67-.92-2.09-4.77-11.13-6.76-.75.59,1.57,1.73-1.24,2h-2.46c-.59-1.49.61-2.65,1.23-3.92-7.57,0-1.14-1.2-6.18-1.75a33.45,33.45,0,0,1-8.66.44c-6.13,1.74,1.14,3.58,1.24,4.58.21-.32-.44-.8,1.25-.87,1.44,0,3.51,0,3.7.22-8.22,2-9.86,5.09-14.83,7.63,6.38.17,5.09-1.14,3.71-1.75,6.79-1.42,4-4.53,13.61-5.45-1.57,1.44,1.21,2.18-1.24,3.92,8.73,2.46-16.27,2.68-7.42,5.23-2.33.69-5.72-.15-7.42.65,4,.24-3.32,1.41,1.24,1.75,0-.73,1.71-1.15,3.72-1.53,1.93.73,1.24,1.84-1.24,2.4-4.71.32-.25-1-4.94-.65-.15,1.88-1.17,3,0,3.92,5.09-.82,1.06-2,7.41-2.62-1,1.13-1.86,4-2.47,5a6,6,0,0,1,2.47-.22,1.51,1.51,0,0,0-.64.28l-3.51.07c.29-.32.36-.66-.79-1-1.28.34-2.49.7-3.68,1.06-5.25,0-10.38,0-14.92-.32-1,.51-4.4.68-7.7.62a58.62,58.62,0,0,1,16.42-3.57c-6.28-2.35,4.57-4.3,3.71-6.54-5.08,3.44-12.89,6.28-18.54,8.5,1.87-5.18-1.56-8.53,1.23-14,5.94-.12,3.77-1.66,6.18-2.4-4.86-.35-.41.94-3.71.87-1-.48-.7-1.18-3.7-1.31-3.73.69,1,1.67-3.7,2-.72-1.83,5.21-4.19-3.72-5-1.35,1.64-4.35,3.28-1.24,4.13-2.19-.41-3.14.18-7.41,0-1.25,1.6,4.05,2,2.47,3.7h4.94c-.48-1.21,4-.57,6.19-1.53a5.86,5.86,0,0,0,2.47.22c-1.14,1.56-3.76,2.26-12.37,2.83-1.24-.17-4.6-1-6.18-.44,6.45.35,14.3,3.33,2.48,3.7-1.32,3.75,2.52,5.61-4.94,8.07,6,0,3.9-1.49,8.65-1.74,1.25,1.74-1.14,4.2-8.65,4.36,2,.56,2.09,1.46,1.23,2,4,.14,4.16.8,3.36,1.5h-1.55a6.39,6.39,0,0,1-1.05-.11.78.78,0,0,1,.16.13l-1.9.06a19.78,19.78,0,0,0-2.72-.08A12.92,12.92,0,0,1-186,1c-1.52-.15.67-.94-3.2-.68.56.6-6.5-.13-6.31.4-6.37-.38-13.38-.74-17.62,0C-201.45.41-199.6,2.34-193,2.26c1.08.93,3.17,1.54,5.9,1.94a3.6,3.6,0,0,1-2.68,1.68c3.15.56.56,1,6.18,1.31-.63.32-1.83.55-2.46.87,3.27.07,4.15.57,4.94,1.09-1.68.43-3.43.85-8.66.65-4.45,1.89.14,2.23-1.24,4.14a43.64,43.64,0,0,1,13.61,0c-3.35-.15.89,1-2.48.88-.14-.27-.36-.52-2.46-.44-.69.14-5,.66-1.24.87.14-.27.37-.51,2.48-.43-2.16.87.11,1.21,0,2.18,6.79-.81.83,1.47,7.41,1.31a9.25,9.25,0,0,1,4.62-.52c-.81.64-1,1.32-3.79,1.7,6.16-.33,12.33-.21,16.37-.43-2.92,1.31,5.94.57,7.55,1.09-.4.3-1.78.42-1.26.87a227.86,227.86,0,0,0,26.43,1.31c.76,1.36,8.19,1.33,12.59,1.52-.62,1.23-4.61,1.24-12.59,1.52,8.18,0,6.31,1.82,12.59,2.18.69-.32-1.47-1.13,1.26-1.09.94.49,7.05.08,10.07.22.1-.89,5.18-1.73,10.07-1.09-.82-.53-2.54-1.12,2.52-1.09,3.62,1.38,26,.72,30.21.66.5-.52-5.73.12-3.77-.66-4.08.7-12.64,0-18.88-.22,5-1,13.2-.52,21.39,0,8.44-.58,24.45-.36,29,.87-2.64.73-4.74-.84-6.3-.22,4.38.52,4,1.73,3.78,2,.53-.49,6.2-.09,8.81-.22,3.08-.29-2.26-.66,1.26-.88,5.8,0-2,1,5,.88-1.72-.75,2-1,6.63-.87-.19.07-.3.14-.3.24,1.94,0,6.34.39,8.8.2a12.57,12.57,0,0,1,3.76.59c-3.28-.15-8.22-.28-6.3.22,1.38-.28.18.26,1,.6a18.27,18.27,0,0,0-3.18-.26,7.85,7.85,0,0,0,.93-.12c-2.59-.06-2.51-.58-3.77-.87-1.84.12-6.51-.26-6.3.22,2.23,0,6.3-.22,5,.44-3.63,0-8.25.12-10.07-.22-2,.34.6,1,3.77,1.09,1.17-.47,5.93-.32,9.09-.45H-8c-.29.35.43.52,1.68.6-1.86.1-2.77.27-1.69.68-8.82.12-5.33-.11-6.3-.65-.08.79-6.63.45-8.82.87,4.22.28,8.78-.11,15.12.44a9.23,9.23,0,0,1-2.52.65c-2.16.09-3.23-.32-3.77,0,4.7,0,.08.86,2.52.87,2.11-.42,9.42.1,8.82.87,3.42,0,2.52-.36,5,0-.36-.81-6.66-.59-6.3-1.52,6.11,0,12.18,0,16.31.3.32.44,1.82.67,3.85.81a1.88,1.88,0,0,1-.62-.39,3.2,3.2,0,0,1,1.86.8c2.09-1,8.26.67,15.1.22,2.22-1.32,15.88.12,22.66-.87.06.3-.59.48-1.26.65h3.55c-.42.26-.16.55,1.52.89,3.34-.7,7.77-.37,11.33-.65-2.13-.36-5.66-.47-7.56-.87A7.05,7.05,0,0,1,65.12,31h0c6.7-.23.31.46,3.76.65,3.17-.32,13.13-.46,23.94-.22-1-1.33,12.49-.16,15.1-.87-4-.1-3.77-.95-7.56-1.09-2.47.78-7.11.71-11.33.22A39.89,39.89,0,0,0,96.59,29c5.52.28,6.74.32,11.33.44-.17-.54-2.4-.68,1.27-.87.16.34,2.14.37,4.06.41-1.13.27-.46.46.86,1.08l-.36.06c-3.76,0-3.07.07-1.74.28l-.63.13c-2-.12-3.74-.45-3.45.25-.09.27,1.39.27,3.07.23a4.8,4.8,0,0,0,.69.18.8.8,0,0,1,.3-.2c1.84,0,3.6-.07,3.5.22.31.34-2.15.19-3.43.25-1.65-.12-3.36-.23-5.41-.28-.28.17,0,.43-1.26.44a1.47,1.47,0,0,0-1.25,0c1.52,0,.76.25,0,.44,2.33-.1,5.22-.11,7.5-.22h.05c9.41.46,9.94-.19,18.89-.22-.17-.41-.84-.73-2.51-.87,1.5.93-9.54.8-11.33.44,2-.19,2.47-.64,4.5-.83.51.3-.66.73.51.8,6.5-1.43,18.9,1.1,20.14-.44,15.76.13,32.18,2.23,54.13,1.53-2.87.06-4.74-.05-5-.44a27.26,27.26,0,0,1,7.54.22c-.64-1.55,11.1-1,13.8-1.94l1.86.39a37.68,37.68,0,0,0,6.4-2.06l1.52-.1c-.74.26-.62.67-.54,1.08h-.37c.39.63,3,.89,5.31,1.18-.3.29.07.53,2.09.78a47,47,0,0,0-4.9.45c2.65,0,5.18-.08,7.52-.2h0c3.54-.17,6.61-.3,8.82.2V31.4c.77,0,1.49,0,1.25-.22-3.9,0-7.77,0-11.07.14-2.13-.91,6.52-.62,9.85-1-6.63-.57-3.51-.36-11.33-1.09a3.29,3.29,0,0,1-1,.65,11.14,11.14,0,0,0-3.32-.45,2.52,2.52,0,0,0,2-1.27c1.75-.06,3.45-.13,4.79-.26.08.13.2.26,1.26.22-2-.71-4.85-.45-2.52-1.52-5.1-.36-5,1.3-7.54.65,2.77-.48,5.48-1.83,10.07-1.31,1-.82-6.67-.15-5-1.09,3.75.49,4.59,0,5.5-.6a30.4,30.4,0,0,0,3.11.51c.19.43.48.76.17,1.2,4.39-.54,3.63-1.22,0-1.74,2.23-.13,5.22.64,6.29,0-1.14-.06-3.34-1-1.27-.88.56,0,1-.06,1.32-.06-.34.14-.42.32,0,.53h1.23c.11.11.41.18,1.29.16h.17a6.23,6.23,0,0,1,1.11.14.39.39,0,0,1-.11.54l0,0a5.19,5.19,0,0,0-.83.35h0l-.35.09c1.85,0,3.61.07,5.38.12a23.13,23.13,0,0,0,4.71,1c9.9,0,10-.27,17.63,0a24,24,0,0,1-5.08.7,15.2,15.2,0,0,0-4.2.11,15.17,15.17,0,0,1-2-.16c.29-.31,2.08-.37,2.52-.65-3.76.21-7.59.07-5,.87a78.39,78.39,0,0,0-13.22.34c-.44-.47,2.6-.57,3.13-1.24-3.84-.16-4.59.22-7.56.22l-.44.68h-3.3c1.08.69-2,.68-2.51,1.09a25.3,25.3,0,0,1,6.28.44c-3.16,0-3,.49-5,.65a43.79,43.79,0,0,1,4.8.13c-.72.25-3.08.21-2.29.71a20.2,20.2,0,0,0,2.7.22c1.59.27,3.31.61,2.35,1.12,2.94.14,7.5.17,11.33.66,1.3-.5,4.88-.6,6.3-1.09-9.76,0-13.47.14-18.05-.71a33.86,33.86,0,0,0,5.43-.63h-.82c1.17,0,2.44,0,4-.05a1.78,1.78,0,0,0-.61.32c1.64.06,3.51.16,5.45.28.69.14,1.47.26,2.11.41a.44.44,0,0,0,0-.28c5.09.31,10.22.65,12.54.69-2.17-.28-2.54-.87-5-1.09h.16C271,30,275,30,279.56,30c-.32.11-.46.24-.41.36a18.08,18.08,0,0,1-2.5-.13c.49.72,3.69,1,5,1.52,3.52.08,7.66-.83,10.07-.22-3.1-.34-3.7.74-1.25.66,5.3-.6,9.82-.61,16.34-1.31-3.15-.33-6.92-.54-8.8-1.09,1.89-.36,11,0,6.28-.88,5.53-.07,16-.43,12.61-1.31.45.73-5.46.37-7.56.65a12.44,12.44,0,0,1-3.77-.65c6-.47,7.2-1.11,9.21-1.86.67.34,1.36.67,2.15,1-.73.13-1.26.21-1.3.21h2l.8.27a2.12,2.12,0,0,1-.27-.26c5.25.09,12,.12,17,.2l.27.13-.1-.13c2.52,0,4.53.1,5.57.18-2.58.21-5,.45-7.56.66-1.11,1.21,13.2.66,8.82,1.74h2.49a3.92,3.92,0,0,0,0,1.33c-1.47.17-3.41.26-3.71.63a21.24,21.24,0,0,0,3.91.17,3.51,3.51,0,0,0,.71,1.14,32.14,32.14,0,0,1-5.88-.44c-1.68.92-4.21.34-7.54.88a1.5,1.5,0,0,0-1.27,0c3.68.72,10.08.4,13.86.65-.7-.46.11-.56,1.42-.57a3.84,3.84,0,0,0,.45.3.57.57,0,0,1-.07-.3c2.26,0,5.59.2,5.75-.51h-2c-.2-1.35.06-2.79-1.79-3.85,1.23-.15,3.32-.21,6-.27a6.13,6.13,0,0,0,3,4.77c-3.5.05-6.42.21-6.47.86,2,.28,8.33,0,7.56-.87h-.63c1.82-1.33,2.11-2.57,1.64-3.73h.24c3.44-.5,12.28.48,16.38-.44h-4.89c-1.15-.39-.74-.6.42-.68H375c.93,0,1.9.09,2.79.16a.47.47,0,0,1,.14-.16c22.66.06,40.07,1,57.36-.81-1.59-.52-.84-.95-.82-1.37,3.55,0,8.48.23,9.62-.19a75,75,0,0,0-9.69,0c-.13-.18-.5-.36-1.34-.55a6.1,6.1,0,0,1,1,.13c0-.17.2-.28.61-.37a25.5,25.5,0,0,1,7,.18c-1,0-2.49,0-2.51.22,4.14.35,4.37.5,5,0,1.66,1.36,2.75.13,8.81,0a25.35,25.35,0,0,0-3.78-.21c1.76,0,3.57,0,5.14-.1,3.93.3,6.63.91,8.72.75-.91-.21-1.1-.4-.82-.57a69.1,69.1,0,0,0,10.7-.13c-3.83-.22-1.62-.36,0-.65-2.19-.06-4.5-.09-6.37-.2,1.72-.3,3.38-.64,3.87-1.08h1.25a.38.38,0,0,0-.11-.15c1.52.16,3.1.32,5.15.4.2-.26-.21-.62,1.26-.66,3.83,0,6.41.2,7.55.66.86.53-4,1-2.51,1.31,2.1-.51-.11.08,0,.44,3.14,0,3.94-.42,5,.22-4.93.58-10.51-.79-13.83.44,4.42-.4,4.14.17,7.54.44a41.24,41.24,0,0,1,7.59-.27q1,.3.85.81c7.86.05,17-.09,26-.26,2.39.11,4.79.3,7.09.59a63.71,63.71,0,0,1-10.08-.44c-4.43.07,4.45.59,0,.66-14.33-.7-35.87,1.27-49.1-.66-.63,1.63-16.78.22-16.36,1.53,7.27-.7,13.84-.13,17.62.88,3.28-.57-2-.17-1.26-.88,5.74.64,4.16-.54,8.82-.65-.58,1,7.33.63,8.82.22-.38.5,3.63.24,3.77.66-.14.41-4.15.15-3.77.65h11.37c2-1,12.3-1,13.84-.44a49.39,49.39,0,0,0-7.54.65,66.41,66.41,0,0,1,11.33.22c.38.43-1.72.43-2.52.65,2.2-.2,6.28-.07,7.56-.44A29.59,29.59,0,0,1,512,30c4.73.12,8.72.38,8.81,1.31-2.36.32-8.34,0-10.07.44,6.84-.08,1.44.38,0,.66,2,0,4.36,0,3.77.44-6.79-.12-14.19.85-21.4-.22-4.11.45-10.56.5-15.1.87,4.8-.15,6.06.89,10.06.22,1.87.64-1.42.81,2.53,1.09-.91-.59,5.92.15,5-.43-1.68-1.42,10.13.16,15.12.65.51.52-5.73-.12-3.79.65,6.6-.27,5,.88,8.82,1.09,1.24-.61,3.35.32,5-.22-1.74-.67-3.27-1.14-2.52-1.52,3.83.06,3.53.84,7.56.87-2.3-1.27,1.09-1.91,1.26-2.83-3.6,0-6.87,0-6.3-.65,5.74.21,9.43-.57,11.33.21-.74-.52,10.91,0,6.29-.43-2.87.06-4.73-.06-5-.44a28.9,28.9,0,0,0,3.76-.44,54.08,54.08,0,0,1-7.55-.87c-.49.38,1.87.56,0,.65-1.07-.47-8,.08-8.81-.44v-.47c9.59.42,4-.93,5-1.09,4.42,0,8.67.7,3.77,1.09,8-.27,13.38,1,16.36-.22-.28.41,1.43.48,1.28.87-1.5,0-3.59,0-3.79.22,3.23,0,1.79.85,5,.87.36-.45,3.37-.44,5-.65,1.56-.71-4.08-.17-2.51-.87,3.13.13,16.56.55,10.06-.22,4.74-.05,11.39.23,12.6-.44-.64.69,6.24.08,5,.87-1.6-.3-7.53-.38-7.54.22a45.9,45.9,0,0,1,8.82.22c-2.51,0-1.61.6-5,.44-4.35.09-8.71-.94-11.33-.44,4.61.34-2.92.33-1.25.87,1,0,1.44.18,1.25.44,3.86.16,4.6-.22,7.56-.22-1.47.32-1.47.55,0,.87-1.82-.24-3.07-.23-3.79.22,3.23-.23,4.42.94,6.31.22-1.47,0-1.37-.34-1.27-.65,5.21.8,4.58-.74,5-.87,4.6.57,5.65-.44,8.81,0-1.65-1,4.73-2.31,11.33-1.74-.34.45-5.57,0-5,.65,3.59-.55,5.89.81,10.08,0-8.2,0,0-.82,1.25-1.09,3.17,1.17,6.44,1,15.1,1.09-3.84.72,5.12,0,1.26.87,6.14.17,14.63,1.1,18.89.87-4.89-.62,8.61-.29,1.25-.87,1,0,1.47-.18,1.28-.44,1.89.38,14.75-.56,16.36.44-1.36.2-.41.8-3.79.66,2.72-.48-.32-.47-3.77-.44-2.19.13.1,1-2.52,1.09-7.08-.31-5.5.21-12.58.22,6.17,1.78-14,1.69-3.8,2.62-1.47,0-2.85-.39-3.76,0,3.69.3,12,0,17.62.44-.86-.59,2.6-.42,3.77-.66,1.75.35,6,.27,5,1.09-2.23,0-6.31-.22-5,.44,6.91.29,12.13-2.59,13.86-1.09,6,.09,4-1.19,7.56-1.52a29.54,29.54,0,0,1,3.77.44c-.25.55-7.73,1-3.77,1.52.28-.31,6.27.2,10.07,0,0,.3.59.48,1.26.65-3.56.18-3.26-.31-6.3-.22,1.22.41-3.76.73,0,.87,1.36-.4,4.15,1.13,7.57.66-3.41-.19.57-.89,3.77-.66-1.66.82,7.6,1.33,10.07.87-.28,1.08,4.19.11,1.26,1.31,4.7-.77,6.21.42,11.33-.43,2.53.44.34.58-1.26.87,7.52-.26,4.85.8,10.06-.22.71.45,3.79.43,1.27.88,5.47,0,5.79.33,8.82-.22,3.21.64-2.09,1.07,0,1.31,5.48-.35,12.87-2,17.61-1.09-1.77.05-1.42.47-2.51.65,3.69-.22,5.46-.44,3.77-1.09,5.37-.64,11.86.2,16.38-.65a9.53,9.53,0,0,1-3.79-.43c4.31-.21,7.8-.68,12.58-.22,8.88-1.75,19.1-.62,31.47-1.53-1-1.48,12.14-.51,12.61-1.74-1.49,0-3.59,0-3.78-.22,2.58-.38,2.47.16,5-.22,1.88.51-.42.94,1.28,1.09a46.71,46.71,0,0,1,10.06-.22c-1.11.2-7.22.61-3.77.87.55-.49,6.2-.09,8.82-.22a91.82,91.82,0,0,0,17.63,3.27c-6-1.08-9.62-2.55-16.38-3.49,14.69-.41,26.22-.86,37.77-2.18.24.67,20,.91,21.4-.22-4.8-.26-9.23-.58-13.84-.87a9.48,9.48,0,0,1-2.51.66c-1.88-.75-5.26.12-6.3-.66,5.86.34,26.73-1.34,34,.44,12.14-.87,24.33,1,36.52-.87-1.88-.6-5.61.46-5-.43-2.65.77-19.3-.32-13.85-.87-11.4.13-25.47.61-31.48-.87,6.9,0,17.5-.23,20.15.65,5-.43,16.53-.24,15.1.44,1.88-.26,3.55-.55,5-.87a4.39,4.39,0,0,0,2.52,0c-5.24,0-6.13-.83-8.82-1.31a87.19,87.19,0,0,1,13.84.65c10.78-.41,27.82-3,49.11-2.4,1.35.56-5.43.77-1.26,1.09a48.17,48.17,0,0,0,5-1.31c11,.69,33.47-1,49.09,0,1.42-.71,7.35-.77,11.33-.44,1.5-.32,4.75-.34,6.3-.65-1.53,0-.77-.24,0-.44-7.07-.23-16.14-.11-20.14-.87,4.33.23,9.55-.5,6.3-.87-3.1.41-5.71-.11-10.07.22.14-.67-4.32-.54-5.85-.91,3.06-.12,2.94.32,5.83.24,1.92-1.63,13.46-.08,15.1.44,1-.67-4.33-.27-2.51-1.09-3.13-.44-11.54,0-14.76-.39,8-.59,22.84.35,29.88-.24,1.56-.7-4.07-.16-2.51-.87,2.13-.07,3.79-.1,5.21-.13a7.81,7.81,0,0,1,1.05.1.71.71,0,0,1-.16-.12,42.78,42.78,0,0,0,6.87-.57c1.88.1-.64,1,3.37.69-.41-.43,3.24-.16,5.17-.19-.05.36-.25.78,2.15,1a33.58,33.58,0,0,1,8.66-.43,10.69,10.69,0,0,0,1.13-.38,40.77,40.77,0,0,0,6.83-.44c-2.33.06-4.26,0-5.93,0,1.89-1.46-3.19-2.88-3.27-3.71-.21.32.44.8-1.25.87-1.44,0-3.51,0-3.7-.22,8.22-2,9.86-5.09,14.83-7.63-6.38-.17-5.09,1.14-3.7,1.75-6.79,1.42-4,4.53-13.61,5.45,1.57-1.44-1.21-2.18,1.24-3.92-8.73-2.45,16.27-2.68,7.42-5.23,2.33-.69,5.72.15,7.42-.65-4-.24,3.32-1.41-1.24-1.75,0,.73-1.71,1.15-3.72,1.53-1.93-.73-1.24-1.84,1.24-2.4,4.71-.32.25,1,4.94.65.15-1.88,1.17-3,0-3.92-5.09.82-1.06,2-7.41,2.62,1-1.13,1.86-4,2.47-5a5.94,5.94,0,0,1-2.47.22c2.09-.55-1.16-1.37,2.47-2,5.4.8-.7,1.65,2.48,2.62,4.72-1.28,8.59-2.7,13.59-3.92,1.35.55-3.76,1,0,1.3,1.32-.56.79-1.46,3.72-1.74,1.58.87,2.55-.06,6.18,0-1.62.56,3,1.56,4.93,2.18a58.53,58.53,0,0,1-18.54,4.36c6.28,2.35-4.57,4.3-3.71,6.54,5.08-3.44,12.89-6.28,18.54-8.5-1.87,5.18,1.56,8.53-1.22,14-5.94.12-3.77,1.66-6.18,2.4,4.86.35.41-.94,3.7-.87,1,.48.7,1.18,3.7,1.31,3.73-.69-1-1.67,3.71-2,.72,1.83-5.21,4.18,3.72,5,1.34-1.69,4.35-3.33,1.24-4.14,2.19.41,3.14-.18,7.41,0,1.25-1.6-4.05-2-2.47-3.7h-4.94c.48,1.2-4,.57-6.19,1.53a6,6,0,0,0-2.47-.22c1.15-1.56,3.76-2.25,12.37-2.83,1.24.17,4.6,1,6.18.44-6.44-.35-14.3-3.33-2.48-3.71,1.32-3.75-2.52-5.61,4.94-8.07-6,0-3.9,1.49-8.65,1.74-1.25-1.74,1.14-4.2,8.65-4.36-2-.55-2.09-1.46-1.23-2-8.19-.28-.25-2.72-1.24-3.27,6.47.21-3,1.87,4.95,1.75a20.15,20.15,0,0,1,4.94-.87c-3.33-1.11-1.31-4.32,1.24-4.58-3.15-.56-.56-1-6.18-1.31.63-.32,1.83-.55,2.46-.87-3.27-.07-4.15-.57-4.94-1.09,1.68-.43,3.43-.85,8.66-.65C1158.25-17.12,1153.66-17.46,1155-19.37ZM-2,28l-.41-.14a15.55,15.55,0,0,0,2,.09Zm244.55,0-.41-.08a19.79,19.79,0,0,1,4.17-.17,2.66,2.66,0,0,1-.45-.18,9.69,9.69,0,0,1,3,.21c-3-.11-2.77.37-6.31.2Zm8.82,1.09c-1.82-.12-6.51.25-6.3-.22-.1-.74,4.68-.64,8.81-.65-.54.31-3.95.16-2.51.85Zm3.76.62a.17.17,0,0,1,.09-.09l.06.08Zm1.32-.53a.13.13,0,0,0,0-.12c-.64,0-1.22.05-1.74.1a16.4,16.4,0,0,1-2-.07c2.63-1.09,11-.44,17.6-.44a129.38,129.38,0,0,1-13.86.5Zm380.15,5.57c-.9-.59,5.93.15,5-.43C648.06,34.62,639.17,35.35,636.63,34.76Zm8.82-1.53c4.7-.23,3.59.54,7.57.44-2.73.52-7.54.46-7.57-.46ZM1063.54-16.3c4.3.17,4.75-.33,8.66-.22-.79,1.22-.58,2.25-11.13,1.74-1.22-.88,3.7-.67,2.47-1.54Zm-6.18,2c5.95-.18,4.58.93,9.9.87-.66.17-1.29.35-1.23.65a13.21,13.21,0,0,1-3.72,0c.22.63,5,1-1.22,1.09.23-.18,1.24-.22,1.22-.44-.35-.45-3.3-.43-4.94-.65,6.67-.46,0-.62,0-1.58Zm-9.89,3c4.61,0,3.53.24,7.41,0-3.5,1.36,7.76.12,8.66,0,2.37.86-5.49,1.79-8.66,2.4,1.43-.26,1.41-.77,1.23-1.31-5.49.12-4.46,1.39-9.89,1.52,3.29-.79-.67-2.1,1.25-2.67ZM683.22,31.91H682l.9-.09Zm-1.57-.4c-.11.08,0,.2.28.36-4.07-.07-7.16.41-10-.62,3.19.35,7.19-.07,9.72.26ZM495.83,20.32c0-.12.12-.23.41-.31l1,.07a2.84,2.84,0,0,0-.92.42h0Zm-26.65-1.56c-2.28-.23-2.11-.44-.89-.59a8.36,8.36,0,0,1,1,.37C469.12,18.64,469.12,18.71,469.18,18.76ZM428,19.39a2.79,2.79,0,0,0-.89.15h.65a10.73,10.73,0,0,0,2,.13.79.79,0,0,1-.21.27,31.26,31.26,0,0,0-3.32.17,2.86,2.86,0,0,0-2.41,0,10.72,10.72,0,0,1,1.21.1,3.39,3.39,0,0,1-1.61-.19c1.66-.45,3.84-.81,3.88-1.55h.86a2.59,2.59,0,0,1,1.54.74Zm-59.82,8.89a22.81,22.81,0,0,1-2.28-.07c-.19-.2.17-.5,0-.7-2,.28-2.72.21-2.59-.27,1.21,0,2.65,0,4.44-.07a2.63,2.63,0,0,0,.94.28c-1,.26-1.43.48-.51.87ZM305.74,24a2.53,2.53,0,0,1,.38-.24H307l.54.27ZM280,24.35c-.44-.15-.34-.3,1.22-.45.67.06,1.88.36,3,.52h.1a5.33,5.33,0,0,0,1.48.05,4.86,4.86,0,0,1,.87.1v.09c-1.6-.17-4.3-.19-6.67-.27Zm5.63-.07c-1.81-.21-1.79-.45-1.71-.71,2,0,4,.08,6,.16l.28.16c-1,.09-1.94.17-2.64.3a17.53,17.53,0,0,1-1.93.13Zm-20.83-2.1-2.14.07c-1.81,0-.43-.65-2.52-.66,1-.08,1.88-.15,2.75-.2a18.13,18.13,0,0,0,3.58.23.49.49,0,0,0,0-.36h3.07c.69.1,1,.18,1,.25a25.14,25.14,0,0,0-5.74.71Zm-5.93-.37c-.39-.12-.86-.24-1.38-.35l1.06-.2c.28.19.38.37.33.58Zm-43.54,4.56a5.37,5.37,0,0,1-1.66-.43h6.18l-2.07.33c-.71.06-1.52.09-2.45.13Zm806.46-41.71c.74-.19,1.45-.38,2.14-.58,4.2.85,2.89,1.76,0,2.83a15.4,15.4,0,0,0-2.14-.18ZM422.49,17.61c-.78,0-1.59-.07-2.4-.09a3,3,0,0,0-1.22-.37c.91-.14,1.18-.29,0-.73H420c.08.2.35.37,1.35.41-.34-.17-.37-.31-.19-.42,2.61,0,5,0,5.24.42C425.87,17.24,421.95,17,422.49,17.61Zm5.18.6h-.41l-.1-.14H427a10.41,10.41,0,0,0,1.31-.06A1.28,1.28,0,0,0,427.67,18.21Zm-2.29-.37c-.61-.06-1.24-.12-1.9-.16a9,9,0,0,1,3.21.09Zm31.53.24c-.91-.1-2-.13-3-.15a13.88,13.88,0,0,1,2.71-.21.74.74,0,0,0,.29.35ZM472.66,18c0,.11-.25.24-.93.41a2.67,2.67,0,0,1-1.63-.32c.79,0,1.68-.08,2.55-.1Zm15.1.11h0a2.32,2.32,0,0,0,.32-.16l.62.07Zm19.92,3.25h-.11c-1.06-.11-2.19-.2-3.47-.27.84-.07,1.89-.11,3.09-.12a3,3,0,0,0,.48.38Zm-10.3,0h0Zm554-5.35c.59,0,1.31-.09,2.24-.08.12.15,0,.34.23.48-2.42,0-2.73-.15-2.44-.38ZM1022-19.6c1.19-.41,1.64-.89.72-1.54,3.55-.52,6.56.14,9.89-.22,0,1.28-1.25,2.51-2.48,3.49-3.18-.13-5.87-.16-8.31-.11v-1.41ZM-.38-31.06v1.76H-.77C-.57-29.89-.54-30.49-.38-31.06Zm-58.7,7.33c-.21.54,1.9.68,3.71.87,1.13-.38,2.3-.76,6.18-.65-1.47.39-2.85.81-4.13,1.23a22.21,22.21,0,0,0-2.91.45c-2.76-.35-3.85-1-4.33-1.76A12.64,12.64,0,0,1-59.08-23.73ZM-123-8.32c5.59,1.07,3.47,1.75,3.2,2.64l-8.5.2C-126.71-6.46-123.59-7.16-123-8.32Zm-26,5.88h0Zm-2.5-.78c-4.33-.23-9.55.5-6.3.87a54.84,54.84,0,0,1,7-.1,5.84,5.84,0,0,1-2,.45c-1.58-.88-2.55.06-6.18,0,1.4-.48-1.85-1.29-4-1.91a84.17,84.17,0,0,1,11.52.67Zm-13.57-5.11c-5,.08-1.36-1.36-2.48-2,2.18-.41,3.84.3,5-.44,3.42.74-.45,2-2.48,2.45Zm-2.48-8.07c6.35,1,3.35,3.12,1.24,4.14-4-.34.39-2.78-1.2-4.13ZM-184.38,4.48c.93.09,1.92.15,2.93.21-.06.16,0,.32.28.48-2.42-.17-3.22-.41-3.17-.68ZM-164.08,17a8.71,8.71,0,0,1,2.69-.53,3,3,0,0,1,.76.24,9.35,9.35,0,0,1-3.41.31Zm59.2,6.12c4.07-1.16,13.13-.33,18.89,0C-90,24.3-102,24.57-104.88,23.16Zm79.32,2.18c1.5-1,6.44-.34,11.33-.21-3.15.63-8,.38-11.35.21ZM9.66,28.16h-5v-.91h5Zm2.75-.3-.22-.1.28.09Zm1,1.18c1.27-.44,1-.59.42-.75h.56c6.73,1,21.73.69,25.49,2.28-8.43-1.06-16.3-.94-26.43-1.52Zm21.4-.65v-.63H31.06c1.35-.57,3.61,0,6.29,0-.07.05-.08.12,0,.21h1.42a4.47,4.47,0,0,0,1.08.14c-.36.36-3.12.25-5,.28ZM44.88,29.7c1.72-.14,2.8-.39,4.17-.58.26.06.54.12.88.17,1.62-.09,3.33-.17,5.08-.25,0,.22-.19.41-1.32.44,1.6.29,3.79.43,1.26.88-2.57-.35-6.66-.44-10-.66Zm20,.71c-1.33-.06-2.72-.11-3.67-.24,1.22.3.5.57-.66.84H60a9.26,9.26,0,0,1-3.77.44c.36-.43-1.7-.43-2.52-.65H60c-2.76-.82,2.57-.47,0-1.09h5c-1.51.25-.59.4-.07.7Zm6.39-.93c2.2-1,8.15.23,13.85,0-1.5.86-8.31-.18-13.77,0Zm28-2.81a20,20,0,0,1-2.76-.43c-.08.23.29.39.78.53-1.64,0-3.58,0-5.83-.12,2.86-.23,6.52-1,10.07-.44a9,9,0,0,1-2.22.46Zm12.34-.21c-.36-.06-.7-.09-1-.13l1.27-.07c0,.06-.07.13-.23.2Zm8.75.59a4.33,4.33,0,0,1-1.19-.38c4.82-.41,5,.53,8.72-.2,1.73,0,3.46.09,5.11.18-4.51.36-8.27.34-12.6.4Zm35.3,4c-.07-.25.26-.4.85-.49l.43.08a.16.16,0,0,1,0-.13c2.39-.22,7.54.25,10.06.33-4.26.45-6-.3-11.3.17Zm30.22.65c-2.36.21-4.22-.65-5,0-3.65-.3,2.1-.77,5-.65Zm-2.7-3.57h.4l-.23.12Zm5.21,4c-3.88-.47,1.78-1.13,5-1.09,1.73.91-5.91.24-5,1.06Zm10.07-3.27q-4.78,0-5-.87h-.06a22.07,22.07,0,0,1,2.6.08c-.27-.39-1.18-.45-1.69-.53a12.19,12.19,0,0,0,2.92-.37h0c2.11,0,1.26.53,1.22.92H196c.53.21,3.94.05,2.5.74ZM197,27c-1.13-.53-2.71,0-4.79-.36-.33.08-.71.16-1.13.23-4.38,0-7.47.31-10.49.58a60.74,60.74,0,0,0-6.22-.42,4.77,4.77,0,0,0-1-.37h3a2.51,2.51,0,0,1,.77.19c.34-.07.73-.13,1.16-.19h1.38a2.5,2.5,0,0,0,.47-.22c8.35-.8,25.11-.61,24.68.19a2.9,2.9,0,0,1,1.31-.4,1.29,1.29,0,0,0,0,1.24l-2.41.2c.78-.2,1.2-.46,1.13-.8A49.53,49.53,0,0,0,197,27Zm6.3,1.92a2.82,2.82,0,0,0-1.37.64l-.91-.09c2.95-.45-2.48-1.1,3.77-1.09,0,.29-2.2.2-2.51.44.35,0,.69,0,1,.07Zm4.9,0,.57.22c-1.21,0-2.43-.06-3.74-.18,1,0,2.12,0,3.2,0ZM209.8,30h2l.28.07ZM234,23.76l.39-.12h1.71a1.2,1.2,0,0,0-.11,1C235.34,24.31,235.58,23.88,234,23.76Zm1.74-1.84-2-.06c.05-.3.51-.46,1.21-.54-.19.11-.19.22.09.35,2.93.07,2-.21,1.93-.42,1,0,2.18,0,3.35.09-.25.42-3.12.42-4.59.57ZM269,25.76a6.18,6.18,0,0,1-2.51-.22V25.1h1.17a12.28,12.28,0,0,0,1.32.18c-.34-.17.76-.22,2.12-.23A4.11,4.11,0,0,1,269,25.76ZM290.43,31c-2.54-.36-9.36,0-11.33-.44h.5a8.21,8.21,0,0,0,2,.2,4.14,4.14,0,0,0,.54-.2,5.77,5.77,0,0,0,2-.21c-.7-.07-1.29-.1-1.84-.11,0-.09,0-.2.23-.38l9.17-.16c-.28.41,1.43.48,1.26.87-5.52-.12,1,.47-2.52.47Zm4.84-6.14,1.18.23a.54.54,0,0,0,.23.22l.55-.05,1.51.31c-1.55.13-3.55.19-5.8.2,3.86-.28,3.51-.57,2.34-.87Zm23.08.8a3.29,3.29,0,0,0,1.24.44c-.58.14-1.19.26-1.77.37-.08-.29.06-.6.54-.77ZM349.12,33h-2.3A4.42,4.42,0,0,1,349.12,33Zm13-3.94c.21.22-1.82.41-2.89.57a5.15,5.15,0,0,0-.54-.83c1.76,0,4,.05,3.49.27Zm8.29.38a19.74,19.74,0,0,1-4.1-.47c1.5.15,2.89.31,4.16.48Zm29.49-1.26c-6.4-.17-7.36,0-11.33-.65-2.38.09-3.17.47-6.3.44a29.68,29.68,0,0,0,3.77.43c-1.54,0-4.67.12-7.89.16,2-.8,9.46-.64,11.86-1.37-2.57-.6-7.33.26-8.44-.27,2.59.07,5.16.07,7,0-1.82-1.29,6.38-2,11.33-2.18.91.6-2.51.44-2.52.87,1.86.66,7.57,0,6.29,0,.16-.36,5.36.21,5,.66-7.27.22-10.73.47-16.37.44-.77.86,6.91.26,10.07.44,1.18.6-1.88.6-2.41,1Zm3.77-1.09c4.19.07,5.59.63,11.33.44-3,.63-11.8,1-11.27-.43Zm29.86-8.88a2.5,2.5,0,0,1-.92-1c-.07.3-1.3.4-2.52.5h0a24.18,24.18,0,0,0-2.92,0c-.35-.48,3.65-.86,6.43-1.19,2,.15,3.77.32,5.32.54,4.75-.52,11.3-.66,14.15.08a10.42,10.42,0,0,1-1.58.33c.07-.41-1-.46-2.53-.21-1.18.14-.48.25.18.4a5,5,0,0,1-1.42-.38c-3.93.35-8.2.83-14.14.94Zm9.2,2.54h-.78c1.65-.17,3.11-.39,4.5-.52a.58.58,0,0,1,.07.12C444.72,20.38,444.39,20.69,442.73,20.76ZM449,19c.85.39,1,.56.62.61a3.23,3.23,0,0,0-1.85-.59c1.26-.16,2.84-.27,4.65-.34-.72.1-1.06.28-.89.53,1.62.38,7.53,0,7.56.65-5.31.55-5.8-.6-10.08-.85Zm7.43-.4h1.92c1.65.4,4.07.67,5.77,1.06-4.15,0-9.82-.52-7.68-1Zm9,5.45a3,3,0,0,0,1.54-.27l1.57.05c-1.66.17-2.32.7-3.15.22Zm0-3.3c-.21-.48,4.47-.1,6.32-.22,1.25-.66-2.82-.39-5-.44a3.63,3.63,0,0,1,2.09-.54,61.4,61.4,0,0,0,6.25.13c.35.36-2.09.76-2,1.28a57.92,57.92,0,0,1-7.67-.21ZM473,23c-.52-.28-.33-.44.21-.53,1,.08,2,.17,2.8.3.09.17.8.36-3.06.24Zm7.56-.44H478a.36.36,0,0,1-.13-.29c.94,0,1.89,0,2.79.08a.38.38,0,0,1-.18.22Zm-2.49-1.09h3.8a33.1,33.1,0,0,1-3.86,0Zm3.74-.68V19.67a4.18,4.18,0,0,1-2.44,0c3-.19,7.78.07,11.41.23-1,.29-4.69.5-5.2,0-1.36,0-.86.44-2.52.44.2.4,4.26.13,5,.44H488l-3.51.09a18.9,18.9,0,0,0-2.73-.11Zm5.44,1h-1.65v-.29q2.65-.09,5.15-.22a4.09,4.09,0,0,0,.48.24q-2,.11-4,.28ZM637.88,31.91c-2.42.43-7.68.23-6.29-.65C635.2,31.21,638.47,31.23,637.88,31.91Zm0-2.83c-1.22,0-1-.27-1.25-.44-2.4.09-3.18.47-6.28.44-1.63-.29-1.63-.81,0-1.09,2.89.52,4,.33,8.81.21C639.68,28.66,638.28,28.76,637.88,29.08Zm5-.66c.56-.49,6.21-.09,8.82-.22.36.35-1.19.38-1.25.65h3.77c-4.28.81-7.53-.42-11.3-.43Zm26.44,3.49c-2,0-4.79-.1-5,.22-4.47,0,2.66-.72-1.28-.66,1-.5,7.83-.21,6.32.44Zm-3.77-3.05c.13-.55,4.7-.51,6.3-.22a17.71,17.71,0,0,1-6.26.21Zm7.57,5.66c-3.45-.46,4.45-.82-1.26-1.09.53-.48,6.67-.17,7.56,0C676.12,33.58,678,34.64,673.12,34.52Zm17.5-2.45a71.24,71.24,0,0,1-11.21.71c3.09-.41,6.26-.81,10.59-1l.71.11c-1,0-2.48,0-2.52.22q1.38,0,2.47,0Zm68.1,6.81c7-1.09,16-.47,20.13-2,3.36.78,12.55.4,13.86-.44,3,1.64-23.3,1.78-34,2.44Zm162.4-8.93c-2.15.08-2.37-.17-2.52-.44a32.18,32.18,0,0,1-7.55,0c2.26-.74,6.17-.19,10.07-.22Zm108.45-6a.71.71,0,0,1-.18-.09,6.49,6.49,0,0,1,.63-.17,4,4,0,0,1-.41.24Zm18.7-6.85c1.36-.29,4.13-.33,5.79-.57a3.55,3.55,0,0,0,.79.08c1.79-.32,1.82-1.43,5-.87-.82-1.67-.43-2.38,4.94-3.27,12.73.75,6.16,3.43,8.09,5.48-6.93-.71-16.62-.5-24.57-.87Zm27.54,1.23c-.23-.47-.36-.93,1.3-1.06h2.46a2.4,2.4,0,0,1-.14,2,17.8,17.8,0,0,0-3.58-1ZM1087,2.88c-7.24-1.39-1.53-2.13-3.7-3.49,5.77,0,4.1-.56,9.89-.22-.56,1.48-5.44,2.22-6.15,3.69Zm-1.24-27.46c3.75.06,3.48.84,7.42.87a13.57,13.57,0,0,1-7.38-.89Zm18.55,21.8a13,13,0,0,0-3.71-.44c.63-.32,1.82-.55,2.46-.87,4.13.1,1.82.8,1.29,1.28Zm19.77-2c-3.9-.32,3.82-1.8-2.46-2.18,1.32-.2.38-.81,3.7-.66-.76.21-2.89.81,1.23.66-1,.72.09,1.36-2.43,2.19ZM1129,2.85c5-.08,1.36,1.36,2.48,2-2.18.41-3.84-.3-5,.44-3.39-.73.52-2,2.56-2.43Zm2.48,8.07c-6.35-1-3.35-3.12-1.24-4.14,4.09.36-.32,2.8,1.28,4.15Zm12.37-18.75c-6.15-.62,3.31-1.56,1.23-2.83,8,.64-1.37,1.69-1.2,2.84Z"/><path class="cls-1" d="M456.47,27c-2.23,0-7.71-.48-11.13,0a13.24,13.24,0,0,1,3.72.44C450.65,26.71,456,27.94,456.47,27Z"/><path class="cls-1" d="M471.3,26.74v-.45c-.07-.13-.18-.26-1.23-.22.39.58-6.93-.2-5,.65A41.4,41.4,0,0,1,471.3,26.74Z"/><path class="cls-1" d="M475,26.74c1.67.49,9.3.21,9.89-.22C481.07,26.79,475.52,25.69,475,26.74Z"/><path class="cls-1" d="M13.09,33.84c15,.35,21.16.18,35.26.43-5.66-.85-12.86-.73-16.36-1.75C30.41,34.53,18.18,32.93,13.09,33.84Z"/><path class="cls-1" d="M151.56,31.85c-1.46-.33-1.46-.55,0-.87-5.51.4-19.62,1.48-16.37,2,3.88-.62,11.75-.34,18.11-.26-4.4.16-9.09.27-9.28,1.16,4.35-.47,7.93-1,11.93-.54-.86-.23-.56-.45-.1-.6,4,0,6.91-.16,7-.85C161.23,31.89,157,31.54,151.56,31.85Z"/><path class="cls-1" d="M4.28,32.09a2.1,2.1,0,0,1-1.21.66C7,33,12,32.29,9.32,32.09,9.12,32.63,5.06,32.16,4.28,32.09Z"/><path class="cls-1" d="M3,32.76H3c-3.38.87-12-.14-13.85.86,9.86-.12,14,.62,20.14,0C5.24,33.68,3.29,33.36,3,32.76Z"/><path class="cls-1" d="M49.59,33.84c-.21.54,2.82.52,3.79.87-.39-.5,3.63-.25,3.79-.66A56.37,56.37,0,0,0,49.59,33.84Z"/><path class="cls-1" d="M111.28,33.62c-8.41-.07-16,0-20.12.66C99,34.45,105.41,34.46,111.28,33.62Z"/><path class="cls-1" d="M157.88,33.62c-.66-.14-1.3-.24-1.93-.31A13.4,13.4,0,0,0,157.88,33.62Z"/><path class="cls-1" d="M64.75,33.4c-.1-1.44-2,.26-2.52.66h6.31C70.45,33.29,64.21,33.92,64.75,33.4Z"/><path class="cls-1" d="M73.52,34.29c4.35-.12,11.95.32,12.59-.43C80.29,33.61,76.69,33.47,73.52,34.29Z"/><path class="cls-1" d="M106.26,32.74c3.29.85,15.88.66,20.14,0-6.86.07-10.52.07-10.07-.66C115.9,32.8,108.91,33.1,106.26,32.74Z"/><path class="cls-1" d="M251,34.71c1.52,0,.77.24,0,.44,3.86.44,6.56-.28,10.08.22C260.25,34.84,252,34.48,251,34.71Z"/><path class="cls-1" d="M900.65,35.8c-1.49.67,8.75.23,8.81-.22A73.52,73.52,0,0,0,900.65,35.8Z"/><path class="cls-1" d="M684.11,41.68c-1,.77,10.38.51,11.32.22C693,41.4,687.32,42.29,684.11,41.68Z"/><path class="cls-1" d="M810,37.54c2.81-.17,6.82-.13,7.55-.65C813.75,36.89,809.88,36.87,810,37.54Z"/><path class="cls-1" d="M616.11,34.93c3.35,0,7.43.12,7.57-.44C621.08,34.62,614.94,34.14,616.11,34.93Z"/><path class="cls-1" d="M660.18,36.45c.85,1.13,6.89.07,11.34.65C671.39,35.85,663,36.87,660.18,36.45Z"/><path class="cls-1" d="M635,36c3.21.11,10,.72,12.58.22C643.3,36.29,637.22,35.58,635,36Z"/><path class="cls-1" d="M506.59,31c-9.23-.78-13.64.36-20.45.28.79.15.68.46,1.57.59,6.86.06,8.8-.38,12.6.21C499.48,31.22,507.75,31.92,506.59,31Z"/><path class="cls-1" d="M964.85,39.94c4.68.07,8.45,1.43,12.59.87C973.3,40.72,965.81,39.16,964.85,39.94Z"/><path class="cls-1" d="M483.93,31.22c.77,0,1.5.05,2.21.06A10.21,10.21,0,0,0,483.93,31.22Z"/><path class="cls-1" d="M935.88,34.49c-6.82.14-9,.65-15.1.22.53.61-9,.59-3.79,1.31,3.24-1,2.23.29,0,.65h5C920.37,35.43,931.47,35.29,935.88,34.49Z"/><path class="cls-1" d="M617.39,33.62c3.15,1,10.24-.07,12.59.22,1.93-.92-6.52,0-6.29-.66,4.12-.36,4.79,0,10,0,1.35-1-4.71.44-3.75-.65-5.48-.42-7,.95-8.83.44C624.25,32.5,617.39,33.29,617.39,33.62Z"/><path class="cls-1" d="M946,32.53c4.94-.26,9.45.67,12.58,0C954.63,32.29,947.67,31.88,946,32.53Z"/><path class="cls-1" d="M956,31c1.91.94,8,.34,11.32.66C967.39,30.78,960.75,31,956,31Z"/><path class="cls-1" d="M938.41,31.44c5.09.21,5.79.1,8.8-.44C941.75,31,940.25,30.62,938.41,31.44Z"/><path class="cls-1" d="M437.36,28.39c3.62,0,6.4-.05,7.56-.44C442.31,28.08,436.15,27.6,437.36,28.39Z"/><path class="cls-1" d="M408.4,30.13c3.14.43,7.11,1,8.81,0C413.24,30.43,409.62,29.59,408.4,30.13Z"/><path class="cls-1" d="M408.4,29h-3.77c3.38.71-3.45.63,0,1.09C406,29.79,408.75,29.67,408.4,29Z"/><path class="cls-1" d="M470.09,33.62c-.38.58,1.74.72,5,.66C476.4,33.54,473.36,33.56,470.09,33.62Z"/><path class="cls-1" d="M286.28,32.09c-3.84.18-6.41,0-7.55.22a7.11,7.11,0,0,1,2.51.44c-9-.12-12.53.67-17.61-.44.29,1.85-25.3-.11-32.75,1.31-.14-.55-.24-1.12-3.78-1.09,4.93.91-1.15,1.08-1.23,1.31,4.85.13,21.81-.36,15.09.43,6.4-.44,6.51-.59,6.3.22,3.3-.7,10.43-.73,13.85-.44-1.54,0-3,.06-2.53.44,3.64.63,3-.59,6.29-.65,2.52.36,1.61,0,5,0,0,.3-.59.48-1.26.65a72.39,72.39,0,0,0,7.55-.88c.2.48,3.18.47,6.29.44.4-.82,5.6-.65,6.3-.87C287.36,32.83,283.86,32.49,286.28,32.09Z"/><path class="cls-1" d="M387,29.29c-22.1-.25,6.53.12,1.26,0Z"/><path class="cls-1" d="M461.27,30.78c5.31.87-2.78.46-1.25.87,2.59-.13,8.26.27,8.81-.22-.69,0-1.44-.2,0-.22C485.62,31,466.2,30.68,461.27,30.78Z"/><path class="cls-1" d="M556.95,31.66c-4.77-.18-9.59-.11-7.54.43,1.26-.81,3.14,1.14,5,.22-.77,0-1.49,0-1.26-.22A9.51,9.51,0,0,0,556.95,31.66Z"/><path class="cls-1" d="M541.84,32.74c.43.51.81,1,5,.87C547.47,32.94,543.75,33,541.84,32.74Z"/><path class="cls-1" d="M485.19,34.49c-1.82.12-6.51-.26-6.28.22,5.19-.17,2.36,1,7.54.87C487,35,484.15,35.11,485.19,34.49Z"/><path class="cls-1" d="M611.08,33.84c6.37.16,2.57-.57,1.28-.88,7.5.06-2-1,3.76-1.52-11-.45-12.59-.37-21.39.44,1.64-.65,1.11-1.08-2.53-1.31-1.6.29-1.6.8,0,1.09a57.22,57.22,0,0,1-8.81,0c.88.79,11.12,1.11,12.58,1.09-2.75-.15,2.38-.72,3.79-.87.87.65,1.51,1.07,0,1.31-8.69-.6-12.65.29-17.63,0,4.19.32-7.21.9-1.26,1.53.32-.31,2.76-.25,3.77-.44-2.6.43,1.35.5,2.53.87,1.15-.73,2.34-.11,6.3-.22-.11-.6,2.09-.44,0-.87,6.65.19.16-.53,5-.66,4.59.6,8.79-.08,10.06,1.09-.76.3-4.83,0-5,.44,4-.19,2.61.56,5,.65,1.26-.49,6.3-.54,6.3.22-4.68.45-15.15-.57-20.14,0,3,0,3.7.37,7.56.22-2.89.49.84,1,2.5,1.31-.21-.47,4.47-.1,6.29-.22.38-.89-1.72,0-5-.21.21-.33-.46-.81,1.25-.88a129.62,129.62,0,0,0,13.85.44c.15.26.37.51,2.53.44C625.32,34.94,613.18,35.57,611.08,33.84Z"/><path class="cls-1" d="M490.24,34.93c4.07,0,.87,1.3,6.28,1.09A11.37,11.37,0,0,0,490.24,34.93Z"/><path class="cls-1" d="M89.87,31.85a27.34,27.34,0,0,0,6.3.66c1.89-.33,5.29-.4,6.29-.88C98.69,32.29,91.92,31.76,89.87,31.85Z"/><path class="cls-1" d="M83.59,37.08c22.83-.62,48.3-.79,68-2C126.92,34.1,106.75,36.29,83.59,37.08Z"/><path class="cls-1" d="M37,32.29c6.57-.17,9.2-.11,13.84-.88A128.21,128.21,0,0,0,37,32.29Z"/></svg>
